<mxfile host="app.diagrams.net" agent="Mozilla/5.0 (Windows NT 10.0; Win64; x64) AppleWebKit/537.36 (KHTML, like Gecko) Chrome/130.0.0.0 Safari/537.36" version="24.8.2">
  <diagram name="Page-1" id="FQxwTBkoFZdnhIE-SlsL">
    <mxGraphModel dx="880" dy="460" grid="0" gridSize="10" guides="1" tooltips="1" connect="1" arrows="1" fold="1" page="1" pageScale="1" pageWidth="850" pageHeight="1100" background="#6666FF" math="0" shadow="0">
      <root>
        <mxCell id="0" />
        <mxCell id="1" parent="0" />
        <mxCell id="HDK0IUv84FkXlxgWhURQ-8" style="edgeStyle=orthogonalEdgeStyle;rounded=0;orthogonalLoop=1;jettySize=auto;html=1;entryX=0;entryY=0.5;entryDx=0;entryDy=0;" edge="1" parent="1" source="HDK0IUv84FkXlxgWhURQ-1" target="HDK0IUv84FkXlxgWhURQ-2">
          <mxGeometry relative="1" as="geometry" />
        </mxCell>
        <mxCell id="HDK0IUv84FkXlxgWhURQ-1" value="Report Upload" style="rounded=1;whiteSpace=wrap;html=1;fillColor=#dae8fc;strokeColor=#6c8ebf;" vertex="1" parent="1">
          <mxGeometry x="120" y="100" width="120" height="60" as="geometry" />
        </mxCell>
        <mxCell id="HDK0IUv84FkXlxgWhURQ-10" style="edgeStyle=orthogonalEdgeStyle;rounded=0;orthogonalLoop=1;jettySize=auto;html=1;entryX=0;entryY=0.5;entryDx=0;entryDy=0;" edge="1" parent="1" source="HDK0IUv84FkXlxgWhURQ-2" target="HDK0IUv84FkXlxgWhURQ-3">
          <mxGeometry relative="1" as="geometry" />
        </mxCell>
        <mxCell id="HDK0IUv84FkXlxgWhURQ-2" value="Text Extraction" style="rounded=1;whiteSpace=wrap;html=1;fillColor=#dae8fc;strokeColor=#6c8ebf;" vertex="1" parent="1">
          <mxGeometry x="280" y="100" width="120" height="60" as="geometry" />
        </mxCell>
        <mxCell id="HDK0IUv84FkXlxgWhURQ-11" style="edgeStyle=orthogonalEdgeStyle;rounded=0;orthogonalLoop=1;jettySize=auto;html=1;entryX=0.5;entryY=0;entryDx=0;entryDy=0;" edge="1" parent="1" source="HDK0IUv84FkXlxgWhURQ-3" target="HDK0IUv84FkXlxgWhURQ-4">
          <mxGeometry relative="1" as="geometry" />
        </mxCell>
        <mxCell id="HDK0IUv84FkXlxgWhURQ-3" value="Data Parsing and Extraction" style="rounded=1;whiteSpace=wrap;html=1;fillColor=#dae8fc;strokeColor=#6c8ebf;" vertex="1" parent="1">
          <mxGeometry x="440" y="100" width="120" height="60" as="geometry" />
        </mxCell>
        <mxCell id="HDK0IUv84FkXlxgWhURQ-12" style="edgeStyle=orthogonalEdgeStyle;rounded=0;orthogonalLoop=1;jettySize=auto;html=1;entryX=1;entryY=0.5;entryDx=0;entryDy=0;" edge="1" parent="1" source="HDK0IUv84FkXlxgWhURQ-4" target="HDK0IUv84FkXlxgWhURQ-5">
          <mxGeometry relative="1" as="geometry" />
        </mxCell>
        <mxCell id="HDK0IUv84FkXlxgWhURQ-4" value="Data Comparison" style="rounded=1;whiteSpace=wrap;html=1;fillColor=#dae8fc;strokeColor=#6c8ebf;" vertex="1" parent="1">
          <mxGeometry x="440" y="220" width="120" height="60" as="geometry" />
        </mxCell>
        <mxCell id="HDK0IUv84FkXlxgWhURQ-14" style="edgeStyle=orthogonalEdgeStyle;rounded=0;orthogonalLoop=1;jettySize=auto;html=1;entryX=1;entryY=0.5;entryDx=0;entryDy=0;" edge="1" parent="1" source="HDK0IUv84FkXlxgWhURQ-5" target="HDK0IUv84FkXlxgWhURQ-6">
          <mxGeometry relative="1" as="geometry" />
        </mxCell>
        <mxCell id="HDK0IUv84FkXlxgWhURQ-5" value="Trend and Risk Analysis" style="rounded=1;whiteSpace=wrap;html=1;fillColor=#dae8fc;strokeColor=#6c8ebf;" vertex="1" parent="1">
          <mxGeometry x="280" y="220" width="120" height="60" as="geometry" />
        </mxCell>
        <mxCell id="HDK0IUv84FkXlxgWhURQ-6" value="&lt;div&gt;&lt;span style=&quot;background-color: initial;&quot;&gt;Display Insights and Updates&lt;/span&gt;&lt;/div&gt;" style="rounded=1;whiteSpace=wrap;html=1;fillColor=#dae8fc;strokeColor=#6c8ebf;" vertex="1" parent="1">
          <mxGeometry x="120" y="220" width="120" height="60" as="geometry" />
        </mxCell>
      </root>
    </mxGraphModel>
  </diagram>
</mxfile>
